<svg xmlns="http://www.w3.org/2000/svg" width="600" height="180" viewBox="0 0 600 180" fill="none"><defs><style>@import url('https://fonts.googleapis.com/css2?family=Outfit:wght@500;600;700;800&amp;display=swap');.word-7{font-family:'Outfit',Arial,sans-serif;font-size:72px;font-weight:700;letter-spacing:-2.5px}.mono-7{font-family:'Outfit',Arial,sans-serif;font-size:76px;font-weight:700;letter-spacing:-2px}</style></defs><g id="macbook-mark" transform="translate(20 30)"><path d="M6 100H206C209.314 100 212 102.686 212 106C212 109.314 209.314 112 206 112H6C2.686 112 0 109.314 0 106C0 102.686 2.686 100 6 100Z" fill="#07111D"/><path d="M84 100H128V103C128 105.761 125.761 108 123 108H89C86.239 108 84 105.761 84 103V100Z" fill="#FFFFFF"/><path d="M20 99V16C20 7.716 26.716 1 35 1H177C185.284 1 192 7.716 192 16V99" stroke="#07111D" stroke-width="5" stroke-linecap="round" stroke-linejoin="round"/><path d="M93 1H119V8C119 12.418 115.418 16 111 16H101C96.582 16 93 12.418 93 8V1Z" fill="#07111D"/><text x="0" y="0" text-anchor="middle" fill="#1683FF" class="mono-7" transform="translate(124 96) rotate(-6) scale(1.18 1)" opacity="1">V</text><text x="0" y="0" text-anchor="middle" fill="none" stroke="#fff" stroke-width="9" stroke-linejoin="round" class="mono-7" transform="translate(105 96) scale(1.22 1)" opacity="1">M</text><text x="0" y="0" text-anchor="middle" fill="#07111D" class="mono-7" transform="translate(105 96) scale(1.22 1)" opacity="1">M</text></g><text x="240" y="117" class="word-7"><tspan fill="#07111D">Mac</tspan><tspan fill="#0B63E5">Vault</tspan></text></svg>
